# Blender 5.0.0
# www.blender.org
mtllib MediumTriangle.mtl
o MediumTriangle
v 1.485515 0.648727 1.487226
v 1.485515 -0.651273 1.487226
v -0.744644 -1.701274 -0.742931
v 1.485515 0.648726 -2.975250
v 1.488735 -0.643633 -2.973653
v -2.972641 -0.651273 1.487226
v -0.744642 1.698726 -0.742933
v -2.972641 0.648727 1.487226
v 1.485515 -0.001273 1.487226
v -2.972641 -0.001273 1.487226
v 1.487125 0.002547 -2.974451
vn -0.0000 -0.0000 1.0000
vn 0.4270 -0.9043 -0.0012
vn -0.0000 0.9047 0.4260
vn 0.4260 0.9047 -0.0000
vn -0.0000 -0.9047 0.4260
vn 1.0000 0.0012 0.0004
vn 1.0000 0.0012 0.0002
vn -0.7073 -0.0004 -0.7070
vn -0.7074 -0.0007 -0.7068
vn -0.7071 -0.0000 -0.7071
vn 1.0000 0.0012 0.0005
vt 0.500000 0.750000
vt 0.625000 0.750000
vt 0.625000 0.875229
vt 0.500000 0.875229
vt 0.375000 0.750000
vt 0.312355 0.687355
vt 0.375000 0.624650
vt 0.687645 0.687355
vt 0.750229 0.750000
vt 0.625000 0.624650
vt 0.249771 0.750000
vt 0.500000 0.624650
vt 0.500000 0.750000
vt 0.375000 0.875229
s 1
usemtl Material.006
f 9/1/1 1/2/1 8/3/1 10/4/1
f 2/5/2 3/6/2 5/7/2
f 7/8/3 8/9/3 1/2/3
f 4/10/4 7/8/4 1/2/4
f 6/11/5 3/6/5 2/5/5
f 11/12/6 4/10/7 1/2/7 9/1/6
f 10/13/8 8/9/9 7/8/9 4/10/9 11/12/8
f 6/11/10 10/13/8 11/12/8 5/7/10 3/6/10
f 5/7/11 11/12/6 9/1/6 2/5/11
f 2/5/1 9/1/1 10/4/1 6/14/1
