# Blender 5.0.0
# www.blender.org
mtllib Shape7_MediumTriangle.mtl
o MediumTriangle
v 1.671676 0.649045 1.672958
v 1.671676 -0.650955 1.672958
v -0.558483 -1.700955 -0.557199
v 1.671676 0.649045 -2.789517
v 1.674896 -0.643314 -2.787920
v -2.786480 -0.650955 1.672958
v -0.558481 1.699045 -0.557200
v -2.786480 0.649045 1.672958
vn -0.0000 -0.0000 1.0000
vn 0.4270 -0.9043 -0.0012
vn -0.0000 0.9047 0.4260
vn 0.4260 0.9047 -0.0000
vn -0.0000 -0.9047 0.4260
vn 1.0000 0.0012 0.0004
vn -0.7073 -0.0004 -0.7070
vt 0.375000 0.750000
vt 0.625000 0.750000
vt 0.625000 0.875229
vt 0.375000 0.875229
vt 0.312355 0.687355
vt 0.375000 0.624650
vt 0.687645 0.687355
vt 0.750229 0.750000
vt 0.625000 0.624650
vt 0.249771 0.750000
s 1
usemtl Material.006
f 2/1/1 1/2/1 8/3/1 6/4/1
f 2/1/2 3/5/2 5/6/2
f 7/7/3 8/8/3 1/2/3
f 4/9/4 7/7/4 1/2/4
f 6/10/5 3/5/5 2/1/5
f 5/6/6 4/9/6 1/2/6 2/1/6
f 6/10/7 8/8/7 7/7/7 4/9/7 5/6/7 3/5/7
