# Blender 5.0.0
# www.blender.org
mtllib Shape6_ShortSmallTriangle.mtl
o ShortSmallTriangle
v 0.742850 0.648726 -2.222827
v 0.742850 -0.651274 -2.222827
v 0.742850 0.648727 2.214696
v 0.746070 -0.643632 2.216294
v -1.487310 1.698727 0.007332
v -1.487310 -1.701274 0.007332
vn 1.0000 0.0012 -0.0004
vn 0.4270 -0.9043 0.0012
vn 0.4260 0.9047 -0.0000
vn -0.7071 -0.0000 -0.7071
vn -0.7033 -0.0002 0.7109
vt 0.375000 0.500000
vt 0.625000 0.500000
vt 0.625000 0.624650
vt 0.375000 0.624650
vt 0.312416 0.562584
vt 0.687584 0.562584
s 1
usemtl Material.005
f 2/1/1 1/2/1 3/3/1 4/4/1
f 6/5/2 2/1/2 4/4/2
f 5/6/3 3/3/3 1/2/3
f 1/2/4 2/1/4 6/5/4 5/6/4
f 3/3/5 5/6/5 6/5/5 4/4/5
