# Blender 5.0.0
# www.blender.org
mtllib Shape5_Square.mtl
o Square
v 0.000000 -2.750000 0.000000
v 0.000000 2.750000 0.000000
v 2.219840 -1.700000 2.219842
v 4.450000 0.650000 -0.012476
v 4.453220 -0.642359 -0.010878
v 2.219842 1.700000 2.219842
v 2.219840 1.700000 -2.219840
v 2.219840 -1.700000 -2.219840
vn 0.4268 0.9044 -0.0000
vn 0.4278 -0.9039 -0.0000
vn -0.7071 -0.0000 -0.7071
vn 0.7071 0.0007 0.7071
vn 0.7033 0.0002 -0.7109
vn -0.7071 -0.0000 0.7071
vt 0.750000 0.625000
vt 0.687645 0.687355
vt 0.625000 0.624650
vt 0.687584 0.562584
vt 0.375000 0.624650
vt 0.312355 0.687355
vt 0.250000 0.625000
vt 0.312416 0.562584
s 0
usemtl Material
f 2/1/1 6/2/1 4/3/1 7/4/1
f 5/5/2 3/6/2 1/7/2 8/8/2
f 7/4/3 8/8/3 1/7/3 2/1/3
f 6/2/4 3/6/4 5/5/4 4/3/4
f 4/3/5 5/5/5 8/8/5 7/4/5
f 3/6/6 6/2/6 2/1/6 1/7/6
