# Blender 5.0.0
# www.blender.org
mtllib Shape4_TallSmallTriangle.mtl
o TallSmallTriangle
v -0.000000 -2.750000 -1.479894
v -0.000000 2.750000 -1.479895
v 2.219840 -1.700000 0.739948
v 2.219842 1.700000 0.739947
v -2.219840 -1.700000 0.739947
v -2.219840 1.700000 0.739947
vn -0.0000 -0.9040 0.4276
vn -0.0000 0.9040 0.4276
vn -0.7071 -0.0000 -0.7071
vn 0.7071 -0.0000 -0.7071
vn -0.0000 -0.0000 1.0000
vt 0.312355 0.687355
vt 0.187645 0.687355
vt 0.250000 0.625000
vt 0.812355 0.687355
vt 0.687645 0.687355
vt 0.750000 0.625000
s 1
usemtl Material.003
f 3/1/1 5/2/1 1/3/1
f 6/4/2 4/5/2 2/6/2
f 2/6/3 1/3/3 5/2/3 6/4/3
f 3/1/4 1/3/4 2/6/4 4/5/4
f 5/2/5 3/1/5 4/5/5 6/4/5
